<svg xmlns="http://www.w3.org/2000/svg" version="1.1" xmlns:xlink="http://www.w3.org/1999/xlink" xmlns:svgjs="http://svgjs.dev/svgjs" width="500" height="400" preserveAspectRatio="none" viewBox="0 0 500 400"><g mask="url(&quot;#SvgjsMask1008&quot;)" fill="none"><path d="M200 75.26C183.8 75.26 172.73 85.39 172.73 100C172.73 122.25 180.5 148.98 200 148.98C230.5 148.98 272.73 119.65 272.73 100C272.73 82.79 233.8 75.26 200 75.26" stroke="rgba(255, 255, 255, 0.2)" stroke-width="2"></path><path d="M300 190C298.11 190 296.15 195.88 296.15 200C296.15 201.57 298.08 201.39 300 201.39C301.85 201.39 303.7 201.54 303.7 200C303.7 195.85 301.88 190 300 190" stroke="rgba(255, 255, 255, 0.2)" stroke-width="2"></path><path d="M200 49.48C169.86 71.69 166.53 70.35 144.32 100C116.53 137.1 124.71 143.45 100 182.98C93.46 193.45 91.81 192.59 81.82 200C41.81 229.67 26.01 257.14 0 257.14C-14.9 257.14 0 228.57 0 200C0 150 0 150 0 100C0 50 -25 25 0 0C25 -25 50 0 100 0C150 0 150 0 200 0C240 0 280 -11.37 280 0C280 13.37 237.7 21.69 200 49.48" stroke="rgba(255, 255, 255, 0.2)" stroke-width="2"></path><path d="M328.57 100C329.35 67.68 364.18 73.54 400 47.37C432.62 23.54 430.43 16.59 465.45 0C480.43 -7.09 494.75 -12.03 500 0C512.03 27.56 504.28 40.65 500 79.17C498.72 90.65 496.22 90.8 488.89 100C448.07 151.21 415.18 145.33 403.7 200C394.18 245.33 417.24 256.14 446.88 300C465.39 327.39 485.61 315.4 500 342.5C512.17 365.4 515.23 386.48 500 400C482.84 415.23 461.7 412.04 435.21 400C411.7 389.32 417.68 354.55 400 354.55C382.22 354.55 387.96 389.24 364.29 400C337.96 411.97 332.14 400 300 400C275.27 400 262.41 416.25 250.55 400C225.9 366.25 214.26 342.14 226.98 300C238.99 260.2 258.9 260.38 300 236.11C343.56 210.38 389.73 231.3 396.3 200C404.02 163.24 327.5 144 328.57 100" stroke="rgba(255, 255, 255, 0.2)" stroke-width="2"></path><path d="M46.15 400C46.15 391.66 76.26 368.89 100 368.89C114.85 368.89 123.33 390.28 123.33 400C123.33 405.83 111.66 400 100 400C73.07 400 46.15 407.22 46.15 400" stroke="rgba(255, 255, 255, 0.2)" stroke-width="2"></path><path d="M0 94.44C47.48 76.95 58.09 61.15 100 63.16C116.05 63.93 115.91 81.91 115.91 100C115.91 115.22 111.25 117.42 100 129.79C65.79 167.42 63.56 166.2 25 200C13.56 210.03 7.95 217.46 0 217.46C-4.55 217.46 0 208.73 0 200C0 150 0 150 0 100C0 97.22 -2.52 95.37 0 94.44" stroke="rgba(255, 255, 255, 0.2)" stroke-width="2"></path><path d="M200 23.71C176.14 23.71 151.06 6.24 151.06 0C151.06 -5.62 175.53 0 200 0C219.17 0 238.33 -5.45 238.33 0C238.33 6.41 219.77 23.71 200 23.71" stroke="rgba(255, 255, 255, 0.2)" stroke-width="2"></path><path d="M373.21 100C373.21 87.92 386.11 80.26 400 80.26C416.17 80.26 433.33 87.42 433.33 100C433.33 116.52 415.65 138.46 400 138.46C385.59 138.46 373.21 117.02 373.21 100" stroke="rgba(255, 255, 255, 0.2)" stroke-width="2"></path><path d="M266.67 300C270.03 280.26 279.64 273.46 300 270.83C346.3 264.84 354.62 270.48 400 282.76C408.53 285.07 407.81 291.94 407.81 300C407.81 305.1 403.72 304.39 400 309.09C364.1 354.39 368.66 363.55 328.57 400C318.66 409.01 314.28 400 300 400C289.01 400 281.01 408.96 278.02 400C264.34 358.96 259.04 344.85 266.67 300" stroke="rgba(255, 255, 255, 0.2)" stroke-width="2"></path><path d="M470.42 400C470.42 392.49 491.11 373.75 500 373.75C505.9 373.75 506.95 393.83 500 400C492.16 406.95 470.42 405.62 470.42 400" stroke="rgba(255, 255, 255, 0.2)" stroke-width="2"></path></g><defs><mask id="SvgjsMask1008"><rect width="500" height="400" fill="#ffffff"></rect></mask></defs></svg>