<svg xmlns="http://www.w3.org/2000/svg" version="1.1" xmlns:xlink="http://www.w3.org/1999/xlink" xmlns:svgjs="http://svgjs.dev/svgjs" width="1440" height="560" preserveAspectRatio="none" viewBox="0 0 1440 560"><g mask="url(&quot;#SvgjsMask1205&quot;)" fill="none"><rect width="1440" height="560" x="0" y="0" fill="rgba(0, 0, 0, 1)"></rect><path d="M -425.2405877599591,130 C -329.24,176.4 -137.24,380.8 54.75941224004089,362 C 246.76,343.2 342.76,50.4 534.7594122400409,36 C 726.76,21.6 822.76,242.8 1014.7594122400409,290 C 1206.76,337.2 1409.71,230.4 1494.759412240041,272 C 1579.81,313.6 1450.95,452.8 1440,498" stroke="rgba(255, 255, 255, 0.2)" stroke-width="2"></path><path d="M -99.98956429712723,41 C -3.99,136.2 188.01,509.8 380.01043570287277,517 C 572.01,524.2 668.01,98 860.0104357028728,77 C 1052.01,56 1148.01,394.6 1340.0104357028727,412 C 1532.01,429.4 1800.01,177 1820.0104357028727,164 C 1840.01,151 1516,310.4 1440,347" stroke="rgba(255, 255, 255, 0.2)" stroke-width="2"></path><path d="M -504.3070115728996,14 C -408.31,88.8 -216.31,349.2 -24.307011572899633,388 C 167.69,426.8 263.69,214.4 455.6929884271004,208 C 647.69,201.6 743.69,368.8 935.6929884271003,356 C 1127.69,343.2 1314.83,153.6 1415.6929884271003,144 C 1516.55,134.4 1435.14,275.2 1440,308" stroke="rgba(255, 255, 255, 0.2)" stroke-width="2"></path><path d="M -384.21478552108,433 C -288.21,377 -96.21,152.4 95.78521447892004,153 C 287.79,153.6 383.79,439.8 575.78521447892,436 C 767.79,432.2 863.79,143.6 1055.7852144789201,134 C 1247.79,124.4 1458.94,408.2 1535.7852144789201,388 C 1612.63,367.8 1459.16,104 1440,33" stroke="rgba(255, 255, 255, 0.2)" stroke-width="2"></path></g><defs><mask id="SvgjsMask1205"><rect width="1440" height="560" fill="#ffffff"></rect></mask></defs></svg>