<svg xmlns="http://www.w3.org/2000/svg" version="1.1" xmlns:xlink="http://www.w3.org/1999/xlink" xmlns:svgjs="http://svgjs.dev/svgjs" width="1300" height="760" preserveAspectRatio="none" viewBox="0 0 1300 760"><g mask="url(&quot;#SvgjsMask1093&quot;)" fill="none"><rect width="1300" height="760" x="0" y="0" fill="rgba(18, 18, 18, 1)"></rect><path d="M0,464.407C89.679,459.153,172.22,431.338,255.401,397.412C356.274,356.271,496.094,346.217,537.174,245.319C578.616,143.532,452.19,45.812,443.148,-63.715C433.17,-184.583,550.901,-317.923,482.413,-418.013C416.016,-515.047,259.772,-467.504,146.153,-497.75C36.341,-526.982,-65.605,-626.714,-174.051,-592.765C-282.575,-558.791,-324.513,-429.447,-383.192,-332.038C-432.744,-249.779,-472.016,-164.832,-488.794,-70.278C-506.038,26.899,-519.918,128.97,-481.096,219.709C-441.869,311.394,-364.275,383.302,-275.388,428.512C-191.17,471.348,-94.324,469.934,0,464.407" fill="#0c0c0c"></path><path d="M1300 1158.729C1373.335 1163.096 1432.596 1100.824 1488.114 1052.711 1537.484 1009.9259999999999 1567.269 953.363 1601.314 897.605 1640.3020000000001 833.751 1713.513 776.128 1702.1399999999999 702.181 1690.755 628.154 1593.249 604.8679999999999 1547.2069999999999 545.794 1497.442 481.944 1499.262 368.563 1422.375 343.23 1346.087 318.095 1276.465 398.263 1203.889 432.677 1143.558 461.284 1073.391 475.418 1032.417 528.138 992.22 579.858 1000.1800000000001 651.015 984.726 714.67 967.2860000000001 786.505 905.6510000000001 858.83 935.741 926.351 965.7919999999999 993.783 1063.516 991.4259999999999 1125.755 1031.1309999999999 1187.701 1070.649 1226.652 1154.3609999999999 1300 1158.729" fill="#181818"></path></g><defs><mask id="SvgjsMask1093"><rect width="1300" height="760" fill="#ffffff"></rect></mask></defs></svg>